<svg width="161" height="54" viewBox="0 0 161 54" fill="none" xmlns="http://www.w3.org/2000/svg">
<path d="M148.179 5.34297e-05H12.8283C12.3349 5.34297e-05 11.8475 5.34298e-05 11.3554 0.00275343C10.9435 0.00545343 10.5349 0.0132969 10.119 0.0198984C9.21556 0.0305659 8.31425 0.110316 7.42289 0.258457C6.53278 0.409822 5.67056 0.69519 4.86538 1.10491C4.06119 1.51809 3.32638 2.05498 2.6876 2.6961C2.04547 3.33541 1.5102 4.07438 1.10238 4.88457C0.693437 5.69315 0.409873 6.55962 0.261485 7.45405C0.111686 8.34735 0.0310773 9.25096 0.0203833 10.1568C0.00789769 10.5707 0.00657917 10.9859 0 11.3999V42.6042C0.00657917 43.0233 0.00789769 43.4294 0.0203833 43.8487C0.0310806 44.7545 0.111689 45.658 0.261485 46.5513C0.409464 47.4462 0.693044 48.3132 1.10238 49.1221C1.51001 49.9297 2.04536 50.6656 2.6876 51.3014C3.32395 51.9454 4.05924 52.4826 4.86538 52.8926C5.67055 53.3035 6.53268 53.5905 7.42289 53.7442C8.3144 53.8912 9.21562 53.971 10.119 53.9829C10.5349 53.9921 10.9435 53.9974 11.3554 53.9974C11.8474 54 12.3349 54 12.8283 54H148.179C148.663 54 149.154 54 149.637 53.9974C150.047 53.9974 150.468 53.9921 150.878 53.9829C151.779 53.9716 152.679 53.8918 153.569 53.7442C154.462 53.5894 155.327 53.3025 156.136 52.8926C156.941 52.4824 157.676 51.9451 158.312 51.3014C158.952 50.6631 159.489 49.9277 159.902 49.1221C160.308 48.3126 160.589 47.4457 160.735 46.5513C160.885 45.6579 160.968 44.7546 160.984 43.8487C160.99 43.4294 160.99 43.0233 160.99 42.6042C161 42.1137 161 41.6259 161 41.1275V12.8738C161 12.3794 161 11.889 160.99 11.3999C160.99 10.9859 160.99 10.5707 160.984 10.1567C160.968 9.25082 160.885 8.34742 160.735 7.454C160.588 6.56008 160.307 5.69368 159.902 4.88451C159.071 3.26057 157.754 1.93869 156.136 1.10479C155.327 0.696069 154.462 0.410778 153.569 0.258335C152.679 0.109542 151.78 0.0297639 150.878 0.0197094C150.468 0.0131214 150.047 0.00521043 149.637 0.00257793C149.154 -0.00012207 148.663 -0.00012207 148.179 -0.00012207V5.34297e-05Z" fill="#A6A6A6"/>
<path d="M11.3618 52.8187C10.9519 52.8187 10.5519 52.8134 10.1452 52.8042C9.30262 52.7932 8.46205 52.7196 7.63035 52.584C6.85483 52.45 6.10356 52.2007 5.40132 51.8444C4.70552 51.491 4.07089 51.0276 3.52175 50.4719C2.96466 49.9229 2.50086 49.286 2.14872 48.5867C1.7927 47.8828 1.54632 47.1283 1.41815 46.3495C1.27974 45.5126 1.20485 44.6664 1.19414 43.8182C1.18561 43.5335 1.17444 42.5855 1.17444 42.5855V11.3998C1.17444 11.3998 1.18633 10.4664 1.1942 10.1921C1.20446 9.34525 1.27891 8.50038 1.41691 7.66484C1.54532 6.88389 1.79189 6.12721 2.1481 5.421C2.49894 4.72213 2.96017 4.08481 3.5139 3.53377C4.06702 2.97749 4.70367 2.51172 5.40066 2.15344C6.10129 1.79823 6.85114 1.55069 7.62509 1.41912C8.45952 1.28218 9.30301 1.20815 10.1485 1.19764L11.3625 1.18115H149.631L150.859 1.1983C151.697 1.20829 152.533 1.28166 153.36 1.41779C154.141 1.55102 154.899 1.80028 155.608 2.15739C157.004 2.87943 158.14 4.02177 158.857 5.4243C159.207 6.12563 159.45 6.87614 159.577 7.65034C159.717 8.49274 159.795 9.34425 159.811 10.1981C159.815 10.5804 159.815 10.9911 159.815 11.3998C159.825 11.906 159.825 12.3879 159.825 12.8737V41.1274C159.825 41.6178 159.825 42.0964 159.815 42.5789C159.815 43.0179 159.815 43.4201 159.809 43.834C159.794 44.6726 159.717 45.5089 159.579 46.3362C159.454 47.1207 159.209 47.881 158.853 48.5907C158.498 49.2825 158.037 49.9138 157.487 50.4614C156.937 51.02 156.301 51.4861 155.604 51.8418C154.897 52.2009 154.141 52.4511 153.36 52.584C152.528 52.7203 151.687 52.7939 150.845 52.8042C150.451 52.8134 150.038 52.8187 149.637 52.8187L148.179 52.8214L11.3618 52.8187Z" fill="#979797"/>
<path d="M33.3243 27.4063C33.3388 26.2795 33.6371 25.1746 34.1914 24.1946C34.7458 23.2146 35.5382 22.3912 36.4949 21.801C35.8871 20.93 35.0853 20.2132 34.1532 19.7076C33.221 19.2019 32.1842 18.9214 31.1251 18.8881C28.8658 18.6502 26.6755 20.2446 25.5242 20.2446C24.3506 20.2446 22.578 18.9117 20.6692 18.9511C19.4345 18.9912 18.2312 19.3514 17.1766 19.9968C16.1219 20.6422 15.2519 21.5507 14.6512 22.6338C12.0491 27.1541 13.99 33.7975 16.4826 37.4515C17.7296 39.2407 19.1871 41.2393 21.0942 41.1684C22.9604 41.0908 23.6574 39.9744 25.9101 39.9744C28.1418 39.9744 28.7957 41.1684 30.7415 41.1234C32.744 41.0907 34.0057 39.3262 35.209 37.52C36.1051 36.2451 36.7945 34.8361 37.252 33.3451C36.0886 32.8514 35.0957 32.025 34.3973 30.9689C33.6988 29.9128 33.3257 28.6737 33.3243 27.4063Z" fill="white"/>
<path d="M29.6494 16.4849C30.7413 15.1697 31.2792 13.4793 31.1489 11.7726C29.4808 11.9484 27.9399 12.7483 26.8333 14.0131C26.2923 14.6309 25.8779 15.3497 25.6138 16.1283C25.3498 16.907 25.2413 17.7302 25.2945 18.5509C26.1289 18.5596 26.9543 18.3781 27.7087 18.0202C28.463 17.6624 29.1266 17.1374 29.6494 16.4849Z" fill="white"/>
<path d="M56.9144 36.6387H50.5459L49.0165 41.1699H46.3191L52.3512 24.4056H55.1537L61.1859 41.1699H58.4424L56.9144 36.6387ZM51.2055 34.5478H56.2535L53.765 27.194H53.6954L51.2055 34.5478Z" fill="white"/>
<path d="M74.2129 35.0598C74.2129 38.858 72.1868 41.2983 69.1294 41.2983C68.3549 41.3389 67.5846 41.1599 66.9068 40.7817C66.229 40.4035 65.671 39.8415 65.2967 39.1599H65.2389V45.2138H62.7385V28.9479H65.1588V30.9808H65.2048C65.5962 30.3025 66.1636 29.7433 66.8466 29.3628C67.5296 28.9823 68.3026 28.7947 69.0834 28.82C72.1749 28.82 74.2129 31.2722 74.2129 35.0598ZM71.6429 35.0598C71.6429 32.5853 70.3684 30.9584 68.4238 30.9584C66.5134 30.9584 65.2284 32.6195 65.2284 35.0598C65.2284 37.5225 66.5134 39.1718 68.4238 39.1718C70.3684 39.1718 71.6429 37.5568 71.6429 35.0598Z" fill="white"/>
<path d="M87.6198 35.0598C87.6198 38.858 85.5938 41.2983 82.5364 41.2983C81.7619 41.3389 80.9916 41.1599 80.3138 40.7817C79.636 40.4035 79.078 39.8415 78.7037 39.1599H78.6459V45.2138H76.1455V28.9479H78.5657V30.9808H78.6117C79.0032 30.3025 79.5706 29.7433 80.2535 29.3628C80.9365 28.9823 81.7095 28.7947 82.4903 28.82C85.582 28.82 87.6198 31.2721 87.6198 35.0598ZM85.0499 35.0598C85.0499 32.5852 83.7754 30.9584 81.8308 30.9584C79.9204 30.9584 78.6354 32.6195 78.6354 35.0598C78.6354 37.5225 79.9204 39.1718 81.8308 39.1718C83.7754 39.1718 85.0499 37.5568 85.0499 35.0598H85.0499Z" fill="white"/>
<path d="M96.4815 36.4992C96.6668 38.1617 98.2763 39.2532 100.476 39.2532C102.583 39.2532 104.099 38.1616 104.099 36.6626C104.099 35.3614 103.185 34.5823 101.02 34.0483L98.8544 33.5249C95.7865 32.7814 94.3622 31.3417 94.3622 29.0056C94.3622 26.1131 96.8744 24.1263 100.442 24.1263C103.972 24.1263 106.392 26.1131 106.474 29.0056H103.95C103.799 27.3326 102.42 26.3227 100.406 26.3227C98.3919 26.3227 97.0136 27.3445 97.0136 28.8316C97.0136 30.0168 97.8939 30.7142 100.047 31.2481L101.888 31.7016C105.316 32.515 106.74 33.8967 106.74 36.3488C106.74 39.4852 104.251 41.4495 100.29 41.4495C96.5853 41.4495 94.0836 39.5313 93.922 36.4991L96.4815 36.4992Z" fill="white"/>
<path d="M112.136 26.0551V28.9475H114.453V30.9343H112.136V37.6724C112.136 38.7192 112.6 39.207 113.618 39.207C113.893 39.2022 114.168 39.1828 114.441 39.149V41.1239C113.983 41.2097 113.518 41.2486 113.052 41.2399C110.586 41.2399 109.624 40.3104 109.624 37.94V30.9343H107.853V28.9475H109.624V26.0551H112.136Z" fill="white"/>
<path d="M115.794 35.0594C115.794 31.2138 118.051 28.7972 121.571 28.7972C125.103 28.7972 127.349 31.2137 127.349 35.0594C127.349 38.9156 125.115 41.3216 121.571 41.3216C118.029 41.3216 115.794 38.9156 115.794 35.0594ZM124.802 35.0594C124.802 32.4214 123.597 30.8644 121.571 30.8644C119.545 30.8644 118.341 32.4333 118.341 35.0594C118.341 37.708 119.545 39.2531 121.571 39.2531C123.597 39.2531 124.802 37.708 124.802 35.0594H124.802Z" fill="white"/>
<path d="M129.411 28.9478H131.796V31.0281H131.854C132.015 30.3784 132.395 29.8042 132.928 29.402C133.462 28.9999 134.117 28.7943 134.784 28.8199C135.072 28.8189 135.359 28.8503 135.641 28.9135V31.2602C135.277 31.1486 134.897 31.0974 134.517 31.1086C134.154 31.0938 133.792 31.158 133.456 31.2969C133.12 31.4358 132.817 31.6461 132.57 31.9132C132.322 32.1804 132.135 32.4981 132.022 32.8446C131.908 33.1911 131.871 33.5582 131.912 33.9206V41.1703H129.411L129.411 28.9478Z" fill="white"/>
<path d="M147.169 37.5801C146.833 39.7989 144.679 41.3216 141.924 41.3216C138.38 41.3216 136.181 38.9394 136.181 35.1174C136.181 31.2837 138.392 28.7972 141.819 28.7972C145.189 28.7972 147.308 31.1202 147.308 34.8261V35.6857H138.705V35.8373C138.665 36.2871 138.721 36.7402 138.87 37.1666C139.018 37.593 139.255 37.9829 139.565 38.3103C139.875 38.6377 140.25 38.8953 140.667 39.0658C141.084 39.2363 141.532 39.3159 141.982 39.2993C142.573 39.3548 143.166 39.2175 143.672 38.9078C144.179 38.598 144.573 38.1324 144.795 37.5801L147.169 37.5801ZM138.717 33.9322H144.807C144.829 33.5278 144.768 33.123 144.627 32.7434C144.486 32.3638 144.269 32.0175 143.988 31.7262C143.708 31.4349 143.37 31.2049 142.997 31.0507C142.624 30.8966 142.222 30.8214 141.819 30.8301C141.412 30.8277 141.008 30.9062 140.631 31.0611C140.255 31.216 139.912 31.4443 139.624 31.7327C139.335 32.0211 139.107 32.3639 138.951 32.7415C138.795 33.119 138.716 33.5237 138.717 33.9323V33.9322Z" fill="white"/>
<path d="M49.4288 15.1925H50.5022C50.687 15.2156 50.8745 15.2 51.053 15.1467C51.2315 15.0935 51.3971 15.0037 51.5393 14.8831C51.6815 14.7624 51.7973 14.6136 51.8793 14.4458C51.9613 14.278 52.0078 14.0951 52.0158 13.9084C52.0158 13.1655 51.4587 12.6856 50.514 12.6856C50.3247 12.6591 50.132 12.6709 49.9473 12.7203C49.7626 12.7697 49.5896 12.8558 49.4386 12.9734C49.2876 13.091 49.1616 13.2377 49.0681 13.405C48.9745 13.5723 48.9153 13.7567 48.894 13.9473H47.7154C47.7357 13.6013 47.8267 13.2632 47.9829 12.954C48.139 12.6448 48.357 12.3712 48.6231 12.1502C48.8892 11.9292 49.1978 11.7656 49.5296 11.6694C49.8615 11.5733 50.2096 11.5467 50.5521 11.5914C52.1327 11.5914 53.2457 12.4793 53.2457 13.7574C53.2494 14.1856 53.1066 14.6021 52.8412 14.9374C52.5757 15.2727 52.2037 15.5066 51.7872 15.5998V15.6948C52.281 15.7167 52.746 15.934 53.0806 16.299C53.4152 16.664 53.5922 17.1471 53.5728 17.6426C53.5363 17.9989 53.4292 18.3442 53.2579 18.6584C53.0866 18.9726 52.8546 19.2494 52.5753 19.4724C52.2961 19.6955 51.9753 19.8603 51.6317 19.9574C51.2881 20.0544 50.9287 20.0816 50.5745 20.0374C50.2195 20.086 49.8585 20.0623 49.5129 19.9679C49.1672 19.8735 48.8441 19.7101 48.5627 19.4877C48.2813 19.2653 48.0474 18.9883 47.875 18.6732C47.7026 18.3581 47.5951 18.0115 47.5591 17.6539H48.756C48.8283 18.4244 49.5339 18.9215 50.5745 18.9215C51.6151 18.9215 52.2944 18.3632 52.2944 17.5761C52.2944 16.7779 51.6545 16.2861 50.5364 16.2861H49.4288V15.1925Z" fill="white"/>
<path d="M54.9326 18.1234C54.9326 17.0291 55.7459 16.3983 57.186 16.3087L58.827 16.2137V15.689C58.827 15.047 58.4053 14.6844 57.5867 14.6844C56.9192 14.6844 56.4581 14.9303 56.324 15.3601H55.1665C55.2887 14.316 56.2689 13.6462 57.6432 13.6462C59.1621 13.6462 60.0187 14.4049 60.0187 15.689V19.8425H58.8664V18.9882H58.7718C58.5798 19.2947 58.3102 19.5445 57.9905 19.7122C57.6708 19.8799 57.3125 19.9594 56.9521 19.9427C56.6978 19.9692 56.4407 19.942 56.1975 19.8628C55.9543 19.7835 55.7303 19.654 55.5401 19.4826C55.3498 19.3112 55.1974 19.1017 55.0928 18.8676C54.9882 18.6335 54.9336 18.38 54.9326 18.1234ZM58.827 17.6039V17.0957L57.3475 17.1906C56.5132 17.2467 56.1348 17.5314 56.1348 18.0673C56.1348 18.6145 56.6078 18.9328 57.2582 18.9328C57.4488 18.9522 57.6413 18.9329 57.8243 18.8761C58.0073 18.8193 58.177 18.7261 58.3234 18.6021C58.4698 18.4781 58.5898 18.3259 58.6763 18.1544C58.7628 17.9829 58.8141 17.7957 58.827 17.6039Z" fill="white"/>
<path d="M63.1919 14.7733V19.8424H61.9962V13.7634H65.9853V14.7732L63.1919 14.7733Z" fill="white"/>
<path d="M73.2314 16.8007C73.2314 18.732 72.2578 19.943 70.7284 19.943C70.353 19.9687 69.978 19.8863 69.6477 19.7054C69.3174 19.5245 69.0455 19.2526 68.864 18.9219H68.7694V21.8638H67.5737V13.7638H68.7247V14.7684H68.8141C68.9988 14.4261 69.2743 14.1417 69.61 13.9467C69.9458 13.7516 70.3287 13.6534 70.7166 13.663C72.2578 13.663 73.2314 14.8686 73.2314 16.8007ZM72.0016 16.8007C72.0016 15.5166 71.3959 14.7407 70.3829 14.7407C69.3765 14.7407 68.7471 15.533 68.7471 16.8059C68.7471 18.0729 69.3764 18.8659 70.3776 18.8659C71.3959 18.8659 72.0016 18.09 72.0016 16.8007Z" fill="white"/>
<path d="M74.824 22.0197V20.9867C74.9534 21.0032 75.0838 21.0107 75.2142 21.0091C75.4689 21.0281 75.7216 20.9519 75.9239 20.7954C76.1261 20.6388 76.2636 20.4128 76.31 20.1608L76.3993 19.8648L74.2064 13.7634H75.5085L77.0274 18.5919H77.122L78.6356 13.7634H79.9035L77.645 20.0935C77.1273 21.5727 76.5544 22.0474 75.3194 22.0474C75.2195 22.0473 74.9357 22.0361 74.824 22.0197Z" fill="white"/>
<path d="M80.8351 18.1174H82.0255C82.1424 18.6533 82.643 18.9328 83.3433 18.9328C84.1395 18.9328 84.6283 18.5808 84.6283 18.0337C84.6283 17.4476 84.1895 17.1682 83.3433 17.1682H82.4367V16.2361H83.3275C84.0502 16.2361 84.4181 15.9572 84.4181 15.449C84.4181 15.0028 84.062 14.662 83.3275 14.662C82.6588 14.662 82.17 14.9467 82.0924 15.4266H80.9402C81.0263 14.8752 81.3247 14.3797 81.7712 14.0468C82.2176 13.7138 82.7765 13.57 83.3275 13.6462C84.7676 13.6462 85.5914 14.2994 85.5914 15.3264C85.5981 15.6124 85.5068 15.8921 85.3327 16.1186C85.1586 16.3451 84.9123 16.5048 84.6349 16.571V16.6659C84.9651 16.7086 85.2682 16.8715 85.4867 17.1236C85.7051 17.3758 85.8238 17.6996 85.82 18.0337C85.82 19.1893 84.8398 19.9539 83.3433 19.9539C82.0202 19.9538 80.9455 19.3454 80.8351 18.1174Z" fill="white"/>
<path d="M87.5415 19.8424V13.7634H88.7266V17.9446H88.8212L91.6133 13.7634H92.7984V19.8424H91.6133V15.6388H91.5239L88.7266 19.8424L87.5415 19.8424Z" fill="white"/>
<path d="M99.3273 14.7732H97.4195V19.8423H96.2225V14.7732H94.3147V13.7634H99.3273V14.7732Z" fill="white"/>
<path d="M105.769 18.2013C105.606 18.7568 105.253 19.2373 104.773 19.5588C104.293 19.8802 103.716 20.0222 103.142 19.96C102.743 19.9705 102.346 19.8938 101.98 19.7352C101.613 19.5765 101.285 19.3397 101.019 19.0411C100.753 18.7426 100.554 18.3895 100.438 18.0063C100.321 17.6232 100.289 17.2191 100.343 16.8223C100.29 16.4242 100.323 16.0193 100.439 15.635C100.556 15.2507 100.753 14.8959 101.018 14.5948C101.283 14.2936 101.609 14.0531 101.975 13.8895C102.34 13.7258 102.737 13.6429 103.137 13.6463C104.823 13.6463 105.841 14.8019 105.841 16.7108V17.1295H101.563V17.1967C101.544 17.4198 101.572 17.6445 101.644 17.8562C101.717 18.0679 101.833 18.262 101.985 18.426C102.137 18.59 102.322 18.7203 102.527 18.8085C102.732 18.8967 102.953 18.9409 103.176 18.9382C103.462 18.9725 103.752 18.9207 104.008 18.7895C104.264 18.6583 104.476 18.4535 104.616 18.2012L105.769 18.2013ZM101.563 16.2422H104.621C104.637 16.0383 104.609 15.8334 104.541 15.6409C104.472 15.4483 104.364 15.2722 104.224 15.1239C104.084 14.9756 103.914 14.8583 103.726 14.7797C103.538 14.7011 103.335 14.6629 103.132 14.6674C102.925 14.6646 102.719 14.7034 102.528 14.7816C102.336 14.8597 102.162 14.9756 102.016 15.1224C101.869 15.2692 101.754 15.444 101.676 15.6363C101.598 15.8286 101.56 16.0347 101.563 16.2422H101.563Z" fill="white"/>
<path d="M110.837 13.7634H113.569C114.754 13.7634 115.449 14.3659 115.449 15.3092C115.451 15.6085 115.35 15.8993 115.164 16.1331C114.978 16.3668 114.717 16.5293 114.426 16.5933V16.6882C114.779 16.7106 115.111 16.8685 115.352 17.1293C115.593 17.3901 115.725 17.7339 115.721 18.0896C115.721 19.1502 114.926 19.8424 113.597 19.8424H110.837V13.7634ZM112.023 14.6843V16.2584H113.208C113.93 16.2584 114.276 15.9796 114.276 15.4654C114.276 14.9915 113.975 14.6843 113.34 14.6843L112.023 14.6843ZM112.023 17.1404V18.9215H113.44C114.147 18.9215 114.526 18.6084 114.526 18.0336C114.526 17.4252 114.097 17.1404 113.29 17.1404L112.023 17.1404Z" fill="white"/>
</svg>
