<svg width="18" height="12" viewBox="0 0 18 12" fill="none" xmlns="http://www.w3.org/2000/svg">
<path d="M16.9543 5.7682L15.24 2.09456C15.1963 1.9997 15.1231 1.91877 15.0296 1.86184C14.9361 1.80491 14.8265 1.77451 14.7143 1.77443H13V0.724818C13 0.58563 12.9398 0.452144 12.8326 0.353724C12.7255 0.255304 12.5801 0.200012 12.4286 0.200012H1.57143C1.41988 0.200012 1.27453 0.255304 1.16737 0.353724C1.0602 0.452144 1 0.58563 1 0.724818V9.64651C1 9.78569 1.0602 9.91918 1.16737 10.0176C1.27453 10.116 1.41988 10.1713 1.57143 10.1713H2.79429C2.92588 10.616 3.21314 11.0086 3.61177 11.2885C4.0104 11.5684 4.49823 11.72 5 11.72C5.50177 11.72 5.9896 11.5684 6.38823 11.2885C6.78686 11.0086 7.07412 10.616 7.20571 10.1713H10.7943C10.9259 10.616 11.2131 11.0086 11.6118 11.2885C12.0104 11.5684 12.4982 11.72 13 11.72C13.5018 11.72 13.9896 11.5684 14.3882 11.2885C14.7869 11.0086 15.0741 10.616 15.2057 10.1713H16.4286C16.5801 10.1713 16.7255 10.116 16.8326 10.0176C16.9398 9.91918 17 9.78569 17 9.64651V5.97287C16.9999 5.90252 16.9843 5.83292 16.9543 5.7682ZM13 2.82404H14.3371L15.56 5.44807H13V2.82404ZM5 10.6961C4.77396 10.6961 4.553 10.6346 4.36506 10.5192C4.17712 10.4039 4.03064 10.24 3.94414 10.0482C3.85764 9.85639 3.83501 9.64534 3.8791 9.44174C3.9232 9.23813 4.03205 9.05111 4.19188 8.90432C4.35171 8.75753 4.55535 8.65756 4.77704 8.61706C4.99873 8.57657 5.22852 8.59735 5.43735 8.67679C5.64618 8.75624 5.82467 8.89077 5.95025 9.06337C6.07583 9.23598 6.14286 9.43891 6.14286 9.64651C6.14286 9.92488 6.02245 10.1919 5.80812 10.3887C5.59379 10.5855 5.3031 10.6961 5 10.6961ZM10.7943 9.1217H7.20571C7.07412 8.677 6.78686 8.28442 6.38823 8.00453C5.9896 7.72464 5.50177 7.573 5 7.573C4.49823 7.573 4.0104 7.72464 3.61177 8.00453C3.21314 8.28442 2.92588 8.677 2.79429 9.1217H2.14286V1.24962H11.8571V7.84118C11.5969 7.97988 11.3691 8.16439 11.1867 8.38413C11.0043 8.60387 10.871 8.85452 10.7943 9.1217ZM13 10.6961C12.774 10.6961 12.553 10.6346 12.3651 10.5192C12.1771 10.4039 12.0306 10.24 11.9441 10.0482C11.8576 9.85639 11.835 9.64534 11.8791 9.44174C11.9232 9.23813 12.032 9.05111 12.1919 8.90432C12.3517 8.75753 12.5553 8.65756 12.777 8.61706C12.9987 8.57657 13.2285 8.59735 13.4374 8.67679C13.6462 8.75624 13.8247 8.89077 13.9503 9.06337C14.0758 9.23598 14.1429 9.43891 14.1429 9.64651C14.1429 9.92488 14.0224 10.1919 13.8081 10.3887C13.5938 10.5855 13.3031 10.6961 13 10.6961ZM15.8571 9.1217H15.2057C15.0794 8.67222 14.7943 8.27388 14.3952 7.98901C13.9961 7.70413 13.5055 7.54879 13 7.54729V6.49768H15.8571V9.1217Z" fill="#2C2C2C" stroke="#2C2C2C" stroke-width="0.4"/>
</svg>
