<svg width="28" height="24" viewBox="0 0 28 24" fill="none" xmlns="http://www.w3.org/2000/svg">
<path d="M27.4904 3.7837C27.116 3.32049 26.559 3.05481 25.9635 3.05481H4.67654L4.48691 1.69284C4.3516 0.727901 3.51605 0 2.54222 0H0.873086C0.390123 0 0 0.391111 0 0.873086C0 1.35506 0.390123 1.74617 0.873086 1.74617H2.54222C2.64988 1.74617 2.7437 1.82716 2.75852 1.93383L5.11407 18.8168C5.24839 19.7817 6.08494 20.5096 7.05876 20.5096H8.00494C7.90815 20.7822 7.85481 21.0765 7.85481 21.3827C7.85481 22.8267 9.02914 24.001 10.4731 24.001C11.917 24.001 13.0914 22.8267 13.0914 21.3827C13.0914 21.0765 13.038 20.7832 12.9412 20.5096H17.6049C17.5081 20.7822 17.4548 21.0765 17.4548 21.3827C17.4548 22.8267 18.6291 24.001 20.0731 24.001C21.517 24.001 22.6914 22.8267 22.6914 21.3827C22.6914 21.0765 22.638 20.7832 22.5412 20.5096H24.4365C24.9185 20.5096 25.3096 20.1185 25.3096 19.6365C25.3096 19.1546 24.9185 18.7635 24.4365 18.7635H7.05778C6.94914 18.7635 6.8563 18.6825 6.84148 18.5758L6.6242 17.0183H23.8123C24.7319 17.0183 25.5398 16.3654 25.7323 15.4657L27.8835 5.42914C28.0079 4.84741 27.8647 4.2479 27.4904 3.7837ZM11.3452 21.3817C11.3452 21.8627 10.9541 22.2548 10.4721 22.2548C9.99111 22.2548 9.59901 21.8637 9.59901 21.3817C9.59901 20.9007 9.99012 20.5086 10.4721 20.5086C10.9541 20.5086 11.3452 20.9007 11.3452 21.3817ZM20.9452 21.3817C20.9452 21.8627 20.5531 22.2548 20.0721 22.2548C19.5911 22.2548 19.199 21.8637 19.199 21.3817C19.199 20.9007 19.5901 20.5086 20.0721 20.5086C20.5541 20.5086 20.9452 20.9007 20.9452 21.3817ZM26.1768 5.0637L24.0267 15.0993C24.0049 15.2 23.9151 15.2721 23.8133 15.2721H6.38123L4.92049 4.8H25.9635C26.0494 4.8 26.1037 4.84444 26.1333 4.88099C26.163 4.91753 26.1946 4.97975 26.1768 5.0637Z" fill="black"/>
</svg>
