<svg width="11" height="9" viewBox="0 0 11 9" fill="none" xmlns="http://www.w3.org/2000/svg">
<path d="M1.91308 3.52612H1.91326C1.99256 3.52622 2.07081 3.54428 2.14213 3.57894C2.21341 3.61359 2.27591 3.66392 2.32497 3.72616L1.91308 3.52612ZM1.91308 3.52612H1.09394C0.890308 3.52612 0.776602 3.76072 0.902321 3.92017L0.902371 3.92023L4.11214 7.98664L4.11218 7.9867C4.32247 8.25284 4.72568 8.2521 4.93667 7.98714L4.93708 7.98662L10.6597 0.734951C10.6598 0.734748 10.66 0.734545 10.6602 0.734342C10.7884 0.573915 10.6699 0.340967 10.4689 0.340967H9.6498C9.48941 0.340967 9.33668 0.414467 9.2376 0.541407C9.23751 0.541517 9.23742 0.541628 9.23734 0.541738L4.52403 6.51253M1.91308 3.52612L4.52403 6.51253M4.52403 6.51253L2.32506 3.72628L4.52403 6.51253Z" fill="white" stroke="white" stroke-width="0.3"/>
</svg>
