<svg width="13" height="13" viewBox="0 0 13 13" fill="none" xmlns="http://www.w3.org/2000/svg">
<path d="M6.33301 0.559692C3.02461 0.559692 0.333008 3.14363 0.333008 6.31969C0.333008 9.49576 3.02461 12.0797 6.33301 12.0797C9.64141 12.0797 12.333 9.49576 12.333 6.31969C12.333 3.14363 9.64141 0.559692 6.33301 0.559692ZM6.33301 10.9277C3.68641 10.9277 1.53301 8.86043 1.53301 6.31969C1.53301 3.77896 3.68641 1.71169 6.33301 1.71169C8.97961 1.71169 11.133 3.77896 11.133 6.31969C11.133 8.86043 8.97961 10.9277 6.33301 10.9277Z" fill="#2C2C2C" stroke="#2C2C2C" stroke-width="0.4"/>
<path d="M6.9334 3.44073H5.7334V6.5592L7.7092 8.45597L8.5576 7.6415L6.9334 6.08227V3.44073Z" fill="#2C2C2C" stroke="#2C2C2C" stroke-width="0.4"/>
</svg>
