<svg width="158" height="44" viewBox="0 0 158 44" fill="none" xmlns="http://www.w3.org/2000/svg">
<path d="M20.4909 1.22681H0.259766V21.7369H20.4909V1.22681Z" fill="#6B4C9F"/>
<path d="M20.2311 1.49035V21.4734H0.519832V1.49035H20.2311ZM20.7509 0.962524H0V22.0004H20.7517V0.962524H20.7509Z" fill="white"/>
<path d="M41.2409 1.22681H21.0115V21.7369H41.2409V1.22681Z" fill="#F58220"/>
<path d="M40.9812 1.49035V21.4734H21.2716V1.49035H40.9812ZM41.5011 0.962524H20.751V22.0004H41.5011V0.962524Z" fill="white"/>
<path d="M20.4909 22.2649H0.259766V42.775H20.4909V22.2649Z" fill="#9CCB3B"/>
<path d="M20.2311 22.5276V42.5107H0.519832V22.5276H20.2311ZM20.7509 22.0006H0V43.0377H20.7517V22.0006H20.7509Z" fill="white"/>
<path d="M41.2409 22.2649H21.0115V42.775H41.2409V22.2649Z" fill="#E31E36"/>
<path d="M40.9812 22.5276V42.5107H21.2716V22.5276H40.9812ZM41.5011 22.0006H20.751V43.0377H41.5011V22.0006Z" fill="white"/>
<path d="M6.5376 27.5358H13.1624V28.691H7.69281V32.3558H13.1152V33.503H7.69281V38.0999H13.1152V39.2551H6.5376V27.5358Z" fill="white"/>
<path d="M24.5479 39.2551L26.1903 27.5358H26.3789L31.0783 37.1519L35.7306 27.5358H35.9192L37.5774 39.2551H36.4379L35.3062 30.8739L31.2198 39.2551H30.929L26.7875 30.8102L25.6638 39.2551H24.5479Z" fill="white"/>
<path d="M5.64941 6.01453H6.90678L10.7339 15.0729L14.6318 6.01453H15.8891L10.8596 17.7339H10.6082L5.64941 6.01453Z" fill="white"/>
<path d="M27.4143 15.5509L28.3966 14.9534C29.0882 16.2441 29.8871 16.8894 30.7935 16.8894C31.1812 16.8894 31.5453 16.7991 31.8858 16.6185C32.2264 16.4326 32.4857 16.1856 32.6638 15.8776C32.842 15.5695 32.931 15.2429 32.931 14.8976C32.931 14.5046 32.8 14.1195 32.5381 13.7424C32.1766 13.2219 31.5165 12.5952 30.5577 11.8622C29.5937 11.124 28.9939 10.5902 28.7581 10.2609C28.3495 9.70851 28.1452 9.11099 28.1452 8.46832C28.1452 7.95844 28.2657 7.4937 28.5066 7.07411C28.7476 6.65451 29.0856 6.32521 29.5204 6.08621C29.9605 5.84189 30.4372 5.71973 30.9507 5.71973C31.4955 5.71973 32.0037 5.85782 32.4752 6.13401C32.952 6.40488 33.4549 6.9068 33.9841 7.63976L33.041 8.36475C32.6062 7.78051 32.2342 7.39544 31.9251 7.20954C31.6213 7.02365 31.2886 6.9307 30.9271 6.9307C30.4608 6.9307 30.0784 7.07411 29.7797 7.36092C29.4863 7.64773 29.3397 8.00093 29.3397 8.42052C29.3397 8.67546 29.392 8.92244 29.4968 9.16145C29.6016 9.40045 29.7928 9.66071 30.0705 9.94221C30.2224 10.0909 30.7201 10.4813 31.5636 11.1133C32.5643 11.8622 33.2506 12.5288 33.6226 13.113C33.9945 13.6973 34.1805 14.2842 34.1805 14.8737C34.1805 15.7236 33.8609 16.4618 33.2218 17.0886C32.5879 17.7153 31.8151 18.0287 30.9035 18.0287C30.2015 18.0287 29.5649 17.8401 28.9939 17.463C28.4228 17.0806 27.8963 16.4432 27.4143 15.5509Z" fill="white"/>
<path d="M49.9617 1.56396H73.0306V5.55942H53.9851V20.4484H72.8669V24.4447H53.9851V38.3789H72.8669V42.3735H49.9617V1.56396Z" fill="#9CCB3B"/>
<path d="M83.0083 42.3735V1.56396H91.3549C97.3746 1.56396 101.744 2.05462 104.462 3.03345C108.367 4.42199 111.418 6.82571 113.617 10.2463C115.814 13.6693 116.913 17.7465 116.913 22.4821C116.913 26.5693 116.044 30.1674 114.301 33.2732C112.559 36.3815 110.295 38.6738 107.515 40.154C104.731 41.6342 100.833 42.3735 95.8143 42.3735H83.0083ZM86.8663 38.5176H91.5187C97.0829 38.5176 100.941 38.1666 103.094 37.4645C106.123 36.4666 108.505 34.67 110.237 32.073C111.971 29.476 112.836 26.3033 112.836 22.5515C112.836 18.6147 111.898 15.2528 110.018 12.4617C108.138 9.67053 105.519 7.75912 102.163 6.72329C99.6462 5.94848 95.4957 5.56025 89.7115 5.56025H86.8663V38.5176Z" fill="#9CCB3B"/>
<path d="M139.008 1.56396L157.781 42.3735H153.437L147.106 28.9465H129.764L123.492 42.3735H119.004L138.023 1.56396H139.008ZM138.501 10.2347L131.603 25.0064H145.366L138.501 10.2347Z" fill="#9CCB3B"/>
</svg>
