<svg width="36" height="36" viewBox="0 0 36 36" fill="none" xmlns="http://www.w3.org/2000/svg">
<path d="M36 18C36 8.05781 27.9422 0 18 0C8.05781 0 0 8.05781 0 18C0 27.9422 8.05781 36 18 36C18.105 36 18.2109 36 18.3159 35.9934V21.9872H14.4487V17.4806H18.3159V14.1619C18.3159 10.3153 20.6644 8.22 24.0956 8.22C25.7409 8.22 27.1537 8.33906 27.5625 8.39625V12.4181H25.2C23.3362 12.4181 22.9706 13.3041 22.9706 14.6044V17.4731H27.4359L26.8528 21.9797H22.9716V35.3034C30.4941 33.1453 36 26.22 36 18Z" fill="#979797"/>
</svg>
