<?xml version="1.0" encoding="UTF-8"?>
<!DOCTYPE svg PUBLIC "-//W3C//DTD SVG 1.1//EN" "http://www.w3.org/Graphics/SVG/1.1/DTD/svg11.dtd">
<!-- Creator: CorelDRAW 2018 (64-Bit) -->
<svg xmlns="http://www.w3.org/2000/svg" xml:space="preserve" width="161px" height="48px" version="1.1" style="shape-rendering:geometricPrecision; text-rendering:geometricPrecision; image-rendering:optimizeQuality; fill-rule:evenodd; clip-rule:evenodd"
viewBox="0 0 161 48"
 xmlns:xlink="http://www.w3.org/1999/xlink">
 <defs>
  <style type="text/css">
   <![CDATA[
    .str0 {stroke:white;stroke-width:0.671;stroke-miterlimit:22.9256}
    .str1 {stroke:white;stroke-width:0.134;stroke-miterlimit:22.9256}
    .fil3 {fill:none}
    .fil0 {fill:#979797}
    .fil1 {fill:#A6A6A6}
    .fil2 {fill:white}
    .fil5 {fill:white;fill-opacity:0.000000}
    .fil7 {fill:black;fill-opacity:0.121569}
    .fil4 {fill:black;fill-opacity:0.200000}
    .fil8 {fill:white;fill-opacity:0.250980}
    .fil6 {fill:white}
   ]]>
  </style>
     <clipPath id="id0">
      <path d="M32.236 28.917l-17.316 9.823c-0.966,0.548 -1.836,0.512 -2.385,0.012l-0.084 0.083 0.084 0.084c0.561,0.5 1.419,0.535 2.385,-0.013l17.424 -9.882 -0.108 -0.107z"/>
     </clipPath>
     <clipPath id="id1">
      <path d="M32.236 28.917l-17.316 9.823c-0.966,0.548 -1.836,0.512 -2.385,0.012l-0.084 0.083 0.084 0.084c0.561,0.5 1.419,0.535 2.385,-0.013l17.424 -9.882 -0.108 -0.107z"/>
     </clipPath>
     <clipPath id="id2">
      <path d="M12.452 38.668c-0.346,-0.369 -0.549,-0.94 -0.549,-1.667l0 0.179c0,0.738 0.203,1.31 0.549,1.667l0.083 -0.083 -0.083 -0.096z"/>
     </clipPath>
     <clipPath id="id3">
      <path d="M12.452 38.668c-0.346,-0.369 -0.549,-0.94 -0.549,-1.667l0 0.179c0,0.738 0.203,1.31 0.549,1.667l0.083 -0.083 -0.083 -0.096z"/>
     </clipPath>
     <clipPath id="id4">
      <path d="M38.174 25.546l-5.951 3.369 0.108 0.107 5.832 -3.31c0.834,-0.476 1.252,-1.095 1.252,-1.714 -0.06,0.559 -0.477,1.119 -1.241,1.548z"/>
     </clipPath>
     <clipPath id="id5">
      <path d="M38.174 25.546l-5.951 3.369 0.108 0.107 5.832 -3.31c0.834,-0.476 1.252,-1.095 1.252,-1.714 -0.06,0.559 -0.477,1.119 -1.241,1.548z"/>
     </clipPath>
     <clipPath id="id6">
      <path d="M14.921 9.258l23.255 13.193c0.752,0.428 1.181,0.976 1.253,1.547 0,-0.619 -0.418,-1.25 -1.253,-1.714l-23.255 -13.193c-1.67,-0.941 -3.029,-0.155 -3.029,1.75l0 0.179c0,-1.917 1.371,-2.703 3.029,-1.762z"/>
     </clipPath>
     <clipPath id="id7">
      <path d="M14.921 9.258l23.255 13.193c0.752,0.428 1.181,0.976 1.253,1.547 0,-0.619 -0.418,-1.25 -1.253,-1.714l-23.255 -13.193c-1.67,-0.941 -3.029,-0.155 -3.029,1.75l0 0.179c0,-1.917 1.371,-2.703 3.029,-1.762z"/>
     </clipPath>
 </defs>
 <g id="Слой_x0020_1">
  <metadata id="CorelCorpID_0Corel-Layer"/>
  <g id="google-play.svg">
   <path class="fil0" d="M155.038 47.813l-149.075 0c-3.279,0 -5.963,-2.679 -5.963,-5.953l0 -35.72c0,-3.275 2.684,-5.953 5.963,-5.953l149.075 0c3.279,0 5.962,2.678 5.962,5.953l0 35.72c0,3.274 -2.683,5.953 -5.962,5.953z"/>
   <path class="fil1" d="M155.038 1.139c2.766,0 5.008,2.238 5.008,5.001l0 35.72c0,2.762 -2.242,5.001 -5.008,5.001l-149.075 0c-2.767,0 -5.009,-2.239 -5.009,-5.001l0 -35.72c0,-2.763 2.242,-5.001 5.009,-5.001l149.075 0zm0 -0.952l-149.075 0c-3.279,0 -5.963,2.678 -5.963,5.953l0 35.72c0,3.274 2.684,5.953 5.963,5.953l149.075 0c3.279,0 5.962,-2.679 5.962,-5.953l0 -35.72c0,-3.275 -2.683,-5.953 -5.962,-5.953z"/>
   <path class="fil2" d="M81.263 26.083c-2.802,0 -5.092,2.131 -5.092,5.06 0,2.917 2.29,5.061 5.092,5.061 2.803,0 5.093,-2.144 5.093,-5.061 0,-2.929 -2.29,-5.06 -5.093,-5.06zm0 8.132c-1.538,0 -2.862,-1.263 -2.862,-3.072 0,-1.822 1.324,-3.072 2.862,-3.072 1.539,0 2.863,1.25 2.863,3.072 0,1.809 -1.336,3.072 -2.863,3.072zm-11.115 -8.132c-2.802,0 -5.092,2.131 -5.092,5.06 0,2.917 2.29,5.061 5.092,5.061 2.803,0 5.093,-2.144 5.093,-5.061 0,-2.929 -2.29,-5.06 -5.093,-5.06zm0 8.132c-1.538,0 -2.862,-1.263 -2.862,-3.072 0,-1.822 1.324,-3.072 2.862,-3.072 1.539,0 2.863,1.25 2.863,3.072 0,1.809 -1.324,3.072 -2.863,3.072zm-13.214 -6.573l0 2.144 5.152 0c-0.155,1.202 -0.56,2.095 -1.168,2.702 -0.752,0.751 -1.92,1.572 -3.972,1.572 -3.172,0 -5.653,-2.548 -5.653,-5.715 0,-3.167 2.481,-5.715 5.653,-5.715 1.706,0 2.958,0.666 3.876,1.536l1.515 -1.513c-1.288,-1.226 -2.994,-2.166 -5.403,-2.166 -4.341,0 -7.99,3.524 -7.99,7.87 0,4.334 3.649,7.87 7.99,7.87 2.35,0 4.115,-0.762 5.498,-2.203 1.419,-1.417 1.861,-3.417 1.861,-5.024 0,-0.5 -0.036,-0.965 -0.12,-1.346l-7.239 0 0 -0.012zm54.036 1.667c-0.417,-1.131 -1.704,-3.226 -4.34,-3.226 -2.612,0 -4.783,2.047 -4.783,5.06 0,2.834 2.147,5.061 5.033,5.061 2.326,0 3.673,-1.418 4.222,-2.239l-1.729 -1.155c-0.572,0.845 -1.359,1.405 -2.493,1.405 -1.133,0 -1.944,-0.524 -2.456,-1.536l6.786 -2.798 -0.24 -0.572zm-6.916 1.691c-0.06,-1.953 1.514,-2.953 2.648,-2.953 0.882,0 1.633,0.441 1.883,1.072l-4.531 1.881zm-5.509 4.906l2.229 0 0 -14.884 -2.229 0 0 14.884zm-3.65 -8.692l-0.083 0c-0.501,-0.596 -1.456,-1.131 -2.672,-1.131 -2.541,0 -4.866,2.226 -4.866,5.084 0,2.833 2.325,5.048 4.866,5.048 1.204,0 2.171,-0.536 2.672,-1.155l0.07 0 0 0.727c0,1.94 -1.037,2.976 -2.706,2.976 -1.36,0 -2.207,-0.976 -2.553,-1.798l-1.943 0.81c0.561,1.346 2.039,2.989 4.496,2.989 2.612,0 4.817,-1.536 4.817,-5.275l0 -9.097 -2.111 0 0 0.822 0.013 0zm-2.564 7.001c-1.539,0 -2.827,-1.286 -2.827,-3.048 0,-1.786 1.288,-3.084 2.827,-3.084 1.514,0 2.707,1.31 2.707,3.084 0.012,1.762 -1.181,3.048 -2.707,3.048zm29.087 -13.193l-5.331 0 0 14.884 2.231 0 0 -5.644 3.112 0c2.469,0 4.889,-1.786 4.889,-4.62 0,-2.834 -2.444,-4.62 -4.901,-4.62zm0.048 7.168l-3.16 0 0 -5.108 3.16 0c1.669,0 2.612,1.381 2.612,2.548 0,1.167 -0.943,2.56 -2.612,2.56zm13.763 -2.131c-1.61,0 -3.28,0.714 -3.972,2.274l1.979 0.821c0.418,-0.821 1.205,-1.095 2.028,-1.095 1.145,0 2.326,0.691 2.338,1.917l0 0.155c-0.406,-0.226 -1.265,-0.572 -2.326,-0.572 -2.134,0 -4.293,1.167 -4.293,3.346 0,1.989 1.741,3.274 3.697,3.274 1.49,0 2.325,-0.666 2.838,-1.452l0.072 0 0 1.155 2.147 0 0 -5.704c0.011,-2.643 -1.969,-4.119 -4.508,-4.119zm-0.275 8.156c-0.728,0 -1.741,-0.369 -1.741,-1.263 0,-1.142 1.263,-1.583 2.361,-1.583 0.979,0 1.443,0.215 2.028,0.5 -0.168,1.37 -1.36,2.346 -2.648,2.346zm12.618 -7.835l-2.552 6.454 -0.072 0 -2.648 -6.454 -2.397 0 3.971 9.026 -2.266 5.012 2.327 0 6.117 -14.038 -2.48 0zm-20.036 9.526l2.23 0 0 -14.884 -2.23 0 0 14.884z"/>
   <path class="fil3 str0" d="M12.349 10.829c0,-0.456 0.089,-0.813 0.228,-1.077l14.28 14.246 -14.283 14.249c-0.136,-0.258 -0.225,-0.615 -0.225,-1.08l0 -26.338z"/>
   <path class="fil3 str0" d="M37.955 22.661l0.001 0.001c0.754,0.424 1.025,0.922 1.025,1.327 0,0.405 -0.272,0.906 -1.026,1.337 0,0 0,0 -0.001,0l-5.65 3.207 -4.54 -4.534 4.548 -4.541 5.643 3.203z"/>
   <path class="fil3 str0" d="M13.141 38.777l14.171 -14.148 4.302 4.295 -16.901 9.593 0 0c-0.667,0.379 -1.196,0.413 -1.572,0.26z"/>
   <path class="fil3 str0" d="M14.699 9.48l16.914 9.593 -4.302 4.294 -14.183 -14.148c0.376,-0.153 0.904,-0.119 1.57,0.26l0.001 0.001z"/>
   <g>
    <path class="fil4" d="M32.236 28.917l-17.316 9.823c-0.966,0.548 -1.836,0.512 -2.385,0.012l-0.084 0.083 0.084 0.084c0.561,0.5 1.419,0.535 2.385,-0.013l17.424 -9.882 -0.108 -0.107z"/>
    <g style="clip-path:url(#id0)">
     <polygon class="fil5" points="12.451,28.917 32.344,28.917 32.344,39.306 12.451,39.306 "/>
    </g>
    <g style="clip-path:url(#id1)">
     <g>
      <path id="1" class="fil6" d="M32.236 28.917l0.632 -0.632 -0.481 -0.48 -0.591 0.335 0.44 0.777zm-17.316 9.823l0.441 0.776 0 0 -0.441 -0.776zm-2.385 0.012l0.602 -0.66 -0.63 -0.574 -0.603 0.602 0.631 0.632zm-0.084 0.083l-0.63 -0.632 -0.633 0.632 0.633 0.632 0.63 -0.632zm0.084 0.084l-0.631 0.631 0.018 0.018 0.019 0.017 0.594 -0.666zm2.385 -0.013l0.441 0.778 0 -0.001 -0.441 -0.777zm17.424 -9.882l0.441 0.777 1.021 -0.579 -0.831 -0.83 -0.631 0.632zm-0.548 -0.884l-17.316 9.823 0.881 1.553 17.316 -9.823 -0.881 -1.553zm-17.316 9.823c-0.773,0.438 -1.186,0.273 -1.343,0.129l-1.204 1.32c0.94,0.856 2.269,0.762 3.428,0.104l-0.881 -1.553zm-2.576 0.157l-0.083 0.083 1.262 1.264 0.083 -0.083 -1.262 -1.264zm-0.083 1.347l0.083 0.083 1.262 -1.263 -0.083 -0.084 -1.262 1.264zm0.12 0.118c0.946,0.844 2.255,0.758 3.42,0.099l-0.881 -1.554c-0.768,0.435 -1.176,0.278 -1.35,0.122l-1.189 1.333zm3.42 0.098l17.424 -9.882 -0.881 -1.554 -17.424 9.883 0.881 1.553zm17.614 -11.291l-0.107 -0.107 -1.262 1.264 0.107 0.107 1.262 -1.264z"/>
     </g>
    </g>
    <path class="fil3" d="M32.236 28.917l-17.316 9.823c-0.966,0.548 -1.836,0.512 -2.385,0.012l-0.084 0.083 0.084 0.084c0.561,0.5 1.419,0.535 2.385,-0.013l17.424 -9.882 -0.108 -0.107z"/>
   </g>
   <g>
    <path class="fil7" d="M12.452 38.668c-0.346,-0.369 -0.549,-0.94 -0.549,-1.667l0 0.179c0,0.738 0.203,1.31 0.549,1.667l0.083 -0.083 -0.083 -0.096z"/>
    <g style="clip-path:url(#id2)">
     <polygon class="fil5" points="11.903,37.001 12.535,37.001 12.535,38.847 11.903,38.847 "/>
    </g>
    <g style="clip-path:url(#id3)">
     <g>
      <path id="1" class="fil6" d="M12.452 38.668l0.671 -0.588 -0.009 -0.011 -0.011 -0.011 -0.651 0.61zm0 0.179l-0.642 0.621 0.631 0.652 0.642 -0.641 -0.631 -0.632zm0.083 -0.083l0.631 0.631 0.592 -0.591 -0.551 -0.629 -0.672 0.589zm0.568 -0.706c-0.148,-0.158 -0.307,-0.485 -0.307,-1.057l-1.786 0c0,0.882 0.246,1.697 0.79,2.278l1.303 -1.221zm-2.093 -1.057l0 0.179 1.786 0 0 -0.179 -1.786 0zm0 0.179c0,0.886 0.243,1.712 0.8,2.288l1.283 -1.242c-0.134,-0.139 -0.297,-0.455 -0.297,-1.046l-1.786 0zm2.073 2.299l0.083 -0.084 -1.262 -1.263 -0.083 0.083 1.262 1.264zm0.124 -1.304l-0.084 -0.095 -1.343 1.177 0.084 0.095 1.343 -1.177z"/>
     </g>
    </g>
    <path class="fil3" d="M12.452 38.668c-0.346,-0.369 -0.549,-0.94 -0.549,-1.667l0 0.179c0,0.738 0.203,1.31 0.549,1.667l0.083 -0.083 -0.083 -0.096z"/>
   </g>
   <g>
    <path class="fil7" d="M38.174 25.546l-5.951 3.369 0.108 0.107 5.832 -3.31c0.834,-0.476 1.252,-1.095 1.252,-1.714 -0.06,0.559 -0.477,1.119 -1.241,1.548z"/>
    <g style="clip-path:url(#id4)">
     <polygon class="fil5" points="32.223,23.998 39.415,23.998 39.415,29.022 32.223,29.022 "/>
    </g>
    <g style="clip-path:url(#id5)">
     <g>
      <path id="1" class="fil6" d="M38.174 25.546l-0.437 -0.779 -0.002 0.002 0.439 0.777zm-5.951 3.369l-0.44 -0.777 -1.022 0.579 0.832 0.83 0.63 -0.632zm0.108 0.107l-0.631 0.633 0.481 0.48 0.591 -0.336 -0.441 -0.777zm5.832 -3.31l0.44 0.777 0.002 -0.001 -0.442 -0.776zm1.252 -1.714l0.893 0 -1.781 -0.095 0.888 0.095zm-1.68 0.771l-5.952 3.369 0.88 1.554 5.952 -3.369 -0.88 -1.554zm-6.142 4.778l0.107 0.108 1.262 -1.265 -0.107 -0.107 -1.262 1.264zm1.179 0.252l5.831 -3.31 -0.881 -1.553 -5.832 3.31 0.882 1.553zm5.833 -3.311c0.991,-0.565 1.703,-1.431 1.703,-2.49l-1.786 0c0,0.179 -0.123,0.551 -0.802,0.939l0.885 1.551zm-0.078 -2.585c-0.018,0.17 -0.173,0.517 -0.79,0.864l0.875 1.557c0.909,-0.51 1.59,-1.282 1.691,-2.231l-1.776 -0.19z"/>
     </g>
    </g>
    <path class="fil3" d="M38.174 25.546l-5.951 3.369 0.108 0.107 5.832 -3.31c0.834,-0.476 1.252,-1.095 1.252,-1.714 -0.06,0.559 -0.477,1.119 -1.241,1.548z"/>
   </g>
   <g>
    <path class="fil8" d="M14.921 9.258l23.255 13.193c0.752,0.428 1.181,0.976 1.253,1.547 0,-0.619 -0.418,-1.25 -1.253,-1.714l-23.255 -13.193c-1.67,-0.941 -3.029,-0.155 -3.029,1.75l0 0.179c0,-1.917 1.371,-2.703 3.029,-1.762z"/>
    <g style="clip-path:url(#id6)">
     <polygon class="fil5" points="11.892,8.693 39.429,8.693 39.429,23.998 11.892,23.998 "/>
    </g>
    <g style="clip-path:url(#id7)">
     <g>
      <path id="1" class="fil6" d="M14.921 9.258l-0.441 0.777 0 0 0.441 -0.777zm23.255 13.193l0.443 -0.776 -0.002 -0.001 -0.441 0.777zm1.253 1.547l-0.886 0.112 1.778 -0.112 -0.892 0zm-1.253 -1.714l-0.44 0.777 0.006 0.003 0.434 -0.78zm-23.255 -13.193l0.441 -0.776 -0.003 -0.002 -0.438 0.778zm-0.441 0.944l23.256 13.192 0.881 -1.553 -23.255 -13.193 -0.882 1.554zm23.254 13.191c0.617,0.353 0.785,0.696 0.809,0.884l1.772 -0.222c-0.12,-0.957 -0.811,-1.708 -1.696,-2.213l-0.885 1.551zm2.587 0.772c0,-1.054 -0.705,-1.935 -1.711,-2.495l-0.868 1.561c0.664,0.37 0.793,0.751 0.793,0.934l1.786 0zm-1.704 -2.491l-23.255 -13.192 -0.882 1.553 23.256 13.193 0.881 -1.554zm-23.258 -13.194c-1.001,-0.564 -2.11,-0.716 -3.026,-0.187 -0.917,0.53 -1.335,1.568 -1.335,2.715l1.786 0c0,-0.757 0.263,-1.065 0.443,-1.169 0.182,-0.105 0.587,-0.179 1.255,0.197l0.877 -1.556zm-4.361 2.528l0 0.179 1.786 0 0 -0.179 -1.786 0zm1.786 0.179c0,-0.763 0.265,-1.074 0.448,-1.18 0.184,-0.106 0.588,-0.18 1.248,0.195l0.882 -1.554c-0.999,-0.566 -2.109,-0.717 -3.025,-0.186 -0.918,0.531 -1.339,1.571 -1.339,2.725l1.786 0z"/>
     </g>
    </g>
    <path class="fil3" d="M14.921 9.258l23.255 13.193c0.752,0.428 1.181,0.976 1.253,1.547 0,-0.619 -0.418,-1.25 -1.253,-1.714l-23.255 -13.193c-1.67,-0.941 -3.029,-0.155 -3.029,1.75l0 0.179c0,-1.917 1.371,-2.703 3.029,-1.762z"/>
   </g>
   <path class="fil2 str1" d="M50.219 17.179l-0.883 0 0 -2.394 0.704 0c0.62,-0.536 0.918,-1.44 0.907,-2.738l0 -3.525 4.782 0 0 6.263 0.799 0 0 2.394 -0.882 0 0 -1.512 -5.427 0 0 1.512zm1.658 -5.12c0.012,1.131 -0.215,2.036 -0.68,2.738l3.613 0 0 -5.394 -2.933 0 0 2.656z"/>
   <path class="fil2 str1" d="M63.695 14.737c-0.704,0.726 -1.574,1.083 -2.624,1.083 -1.049,0 -1.92,-0.357 -2.623,-1.083 -0.704,-0.726 -1.05,-1.607 -1.05,-2.643 0,-1.036 0.346,-1.929 1.05,-2.644 0.703,-0.726 1.574,-1.083 2.623,-1.083 1.038,0 1.908,0.357 2.624,1.083 0.703,0.727 1.061,1.608 1.061,2.644 0,1.047 -0.358,1.929 -1.061,2.643zm-4.568 -0.596c0.525,0.537 1.181,0.798 1.944,0.798 0.764,0 1.419,-0.261 1.944,-0.798 0.525,-0.536 0.799,-1.214 0.799,-2.047 0,-0.834 -0.262,-1.513 -0.799,-2.048 -0.525,-0.536 -1.18,-0.798 -1.944,-0.798 -0.763,0 -1.419,0.262 -1.944,0.798 -0.524,0.535 -0.799,1.214 -0.799,2.048 0,0.833 0.275,1.511 0.799,2.047z"/>
   <path class="fil2 str1" d="M69.384 15.82c-1.049,0 -1.932,-0.357 -2.648,-1.071 -0.715,-0.714 -1.073,-1.595 -1.073,-2.667 0,-1.072 0.358,-1.953 1.073,-2.667 0.716,-0.715 1.599,-1.072 2.648,-1.072 1.073,0 1.956,0.393 2.624,1.167l-0.644 0.619c-0.489,-0.607 -1.145,-0.905 -1.992,-0.905 -0.775,0 -1.443,0.262 -1.979,0.786 -0.537,0.524 -0.799,1.215 -0.799,2.06 0,0.845 0.262,1.536 0.799,2.06 0.536,0.524 1.192,0.785 1.979,0.785 0.859,0 1.587,-0.345 2.195,-1.035l0.644 0.642c-0.322,0.393 -0.74,0.703 -1.229,0.929 -0.489,0.262 -1.025,0.369 -1.598,0.369z"/>
   <polygon class="fil2 str1" points="75.943,15.666 75.024,15.666 75.024,9.403 73.021,9.403 73.021,8.522 77.934,8.522 77.934,9.403 75.931,9.403 75.931,15.666 "/>
   <path class="fil2 str1" d="M84.255 8.522l-2.707 6.025c-0.37,0.845 -0.93,1.274 -1.669,1.274 -0.216,0 -0.454,-0.048 -0.716,-0.155l0.238 -0.846c0.155,0.084 0.31,0.132 0.478,0.132 0.214,0 0.381,-0.036 0.5,-0.119 0.119,-0.084 0.227,-0.239 0.322,-0.453l0.263 -0.572 -2.409 -5.286 1.085 0 1.765 4.096 0.036 0 1.729 -4.096 1.085 0z"/>
   <polygon class="fil2 str1" points="85.293,15.666 85.293,8.522 90.469,8.522 90.469,15.666 89.55,15.666 89.55,9.403 86.211,9.403 86.211,15.666 "/>
   <polygon class="fil2 str1" points="92.103,15.666 92.103,8.522 93.021,8.522 93.021,11.582 96.599,11.582 96.599,8.522 97.517,8.522 97.517,15.666 96.599,15.666 96.599,12.439 93.021,12.439 93.021,15.666 "/>
   <path class="fil2 str1" d="M105.02 14.737c-0.704,0.726 -1.574,1.083 -2.624,1.083 -1.049,0 -1.92,-0.357 -2.623,-1.083 -0.705,-0.726 -1.05,-1.607 -1.05,-2.643 0,-1.036 0.345,-1.929 1.05,-2.644 0.703,-0.726 1.574,-1.083 2.623,-1.083 1.038,0 1.908,0.357 2.624,1.083 0.703,0.727 1.061,1.608 1.061,2.644 -0.012,1.047 -0.358,1.929 -1.061,2.643zm-4.568 -0.596c0.525,0.537 1.181,0.798 1.944,0.798 0.763,0 1.419,-0.261 1.943,-0.798 0.525,-0.536 0.8,-1.214 0.8,-2.047 0,-0.834 -0.263,-1.513 -0.8,-2.048 -0.524,-0.536 -1.18,-0.798 -1.943,-0.798 -0.763,0 -1.419,0.262 -1.944,0.798 -0.525,0.535 -0.799,1.214 -0.799,2.048 0,0.833 0.262,1.511 0.799,2.047z"/>
   <path class="fil2 str1" d="M109.824 15.666l0 -7.144 2.588 0c0.56,0 1.05,0.19 1.455,0.547 0.406,0.37 0.62,0.834 0.62,1.394 0,0.345 -0.083,0.643 -0.262,0.892 -0.179,0.263 -0.405,0.453 -0.704,0.584l0 0.036c0.359,0.119 0.645,0.321 0.871,0.619 0.227,0.297 0.345,0.631 0.345,1.024 0,0.583 -0.214,1.072 -0.643,1.452 -0.429,0.382 -0.943,0.584 -1.526,0.584l-2.744 0 0 0.012zm0.919 -4.084l1.669 0c0.346,0 0.62,-0.119 0.835,-0.345 0.215,-0.227 0.31,-0.477 0.31,-0.751 0,-0.273 -0.095,-0.523 -0.31,-0.75 -0.202,-0.226 -0.465,-0.345 -0.799,-0.345l-1.705 0 0 2.191zm0 3.203l1.849 0c0.357,0 0.643,-0.119 0.857,-0.369 0.216,-0.25 0.335,-0.513 0.335,-0.81 0,-0.298 -0.108,-0.56 -0.347,-0.798 -0.226,-0.238 -0.524,-0.369 -0.893,-0.369l-1.813 0 0 2.346 0.012 0z"/>
  </g>
 </g>
</svg>
