<svg width="25" height="24" viewBox="0 0 25 24" fill="none" xmlns="http://www.w3.org/2000/svg">
<path d="M23.9655 5.30601C23.5884 4.40473 23.0446 3.58801 22.3646 2.90155C21.6841 2.21304 20.8818 1.6659 20.0012 1.28987C19.0882 0.898397 18.1089 0.69802 17.1202 0.700368C15.7331 0.700368 14.3798 1.0924 13.2038 1.8329C12.9224 2.01004 12.6551 2.20461 12.4019 2.41659C12.1487 2.20461 11.8814 2.01004 11.6 1.8329C10.424 1.0924 9.07069 0.700368 7.68362 0.700368C6.68482 0.700368 5.71696 0.897836 4.80257 1.28987C3.91912 1.66738 3.12289 2.21041 2.4392 2.90155C1.75832 3.58723 1.21441 4.40415 0.838308 5.30601C0.447227 6.24398 0.247467 7.24003 0.247467 8.26512C0.247467 9.23213 0.438787 10.2398 0.818613 11.2649C1.13654 12.1215 1.59233 13.0101 2.17473 13.9075C3.09757 15.3275 4.36647 16.8085 5.94205 18.3098C8.553 20.7985 11.1386 22.5176 11.2484 22.5873L11.9152 23.0287C12.2106 23.2233 12.5904 23.2233 12.8858 23.0287L13.5526 22.5873C13.6624 22.5147 16.2452 20.7985 18.8589 18.3098C20.4345 16.8085 21.7034 15.3275 22.6263 13.9075C23.2087 13.0101 23.6673 12.1215 23.9824 11.2649C24.3622 10.2398 24.5535 9.23213 24.5535 8.26512C24.5563 7.24003 24.3566 6.24398 23.9655 5.30601ZM12.4019 20.7317C12.4019 20.7317 2.38575 14.1078 2.38575 8.26512C2.38575 5.30601 4.75755 2.90736 7.68362 2.90736C9.74031 2.90736 11.5241 4.09216 12.4019 5.82291C13.2797 4.09216 15.0635 2.90736 17.1202 2.90736C20.0463 2.90736 22.4181 5.30601 22.4181 8.26512C22.4181 14.1078 12.4019 20.7317 12.4019 20.7317Z" fill="white"/>
</svg>
