<svg width="36" height="36" viewBox="0 0 36 36" fill="none" xmlns="http://www.w3.org/2000/svg">
<path d="M21.4453 18C21.4453 19.9027 19.9027 21.4453 18 21.4453C16.0973 21.4453 14.5547 19.9027 14.5547 18C14.5547 16.0973 16.0973 14.5547 18 14.5547C19.9027 14.5547 21.4453 16.0973 21.4453 18Z" fill="#979797"/>
<path d="M26.057 11.9041C25.891 11.4555 25.6273 11.0491 25.2835 10.7158C24.9502 10.3727 24.5438 10.1083 24.0952 9.94237C23.731 9.80104 23.184 9.63229 22.1764 9.58659C21.0866 9.53667 20.7596 9.52612 17.9998 9.52612C15.2401 9.52612 14.9131 9.53667 13.8233 9.58659C12.8157 9.633 12.268 9.80104 11.9045 9.94237C11.4552 10.1083 11.0495 10.372 10.7162 10.7158C10.3731 11.0491 10.1087 11.4555 9.94274 11.9041C9.80141 12.2683 9.63266 12.8153 9.58696 13.8236C9.53704 14.9135 9.52649 15.2404 9.52649 18.0002C9.52649 20.7599 9.53704 21.0869 9.58696 22.1767C9.63266 23.1843 9.80141 23.7314 9.94274 24.0956C10.1087 24.5449 10.3723 24.9506 10.7162 25.2839C11.0495 25.627 11.4559 25.8914 11.9045 26.0573C12.2687 26.1993 12.8164 26.3674 13.824 26.4131C14.9138 26.463 15.2401 26.4735 18.0006 26.4735C20.761 26.4735 21.088 26.463 22.1771 26.4131C23.1847 26.3674 23.7324 26.1986 24.0966 26.0573C24.998 25.7092 25.7103 24.997 26.0584 24.0956C26.1997 23.7314 26.3684 23.1843 26.4141 22.1767C26.4641 21.0869 26.4746 20.7599 26.4746 18.0002C26.4746 15.2404 26.4641 14.9135 26.4141 13.8236C26.367 12.816 26.199 12.2683 26.057 11.9041ZM17.9998 23.3074C15.0685 23.3074 12.692 20.9315 12.692 18.0002C12.692 15.0689 15.0685 12.693 17.9998 12.693C20.9312 12.693 23.307 15.0689 23.307 18.0002C23.307 20.9315 20.9312 23.3074 17.9998 23.3074ZM23.5173 13.7231C22.8324 13.7231 22.277 13.1676 22.277 12.4828C22.277 11.7979 22.8324 11.2425 23.5173 11.2425C24.2021 11.2425 24.7576 11.7979 24.7576 12.4828C24.7569 13.1676 24.2021 13.7231 23.5173 13.7231Z" fill="#979797"/>
<path d="M18 0C8.06063 0 0 8.06063 0 18C0 27.9394 8.06063 36 18 36C27.9394 36 36 27.9394 36 18C36 8.06063 27.9394 0 18 0ZM28.2734 22.2609C28.2234 23.3613 28.0484 24.1123 27.7931 24.7697C27.2559 26.1584 26.1584 27.2559 24.7704 27.7924C24.113 28.0477 23.362 28.2227 22.2616 28.2727C21.1591 28.324 20.8076 28.3359 18 28.3359C15.1924 28.3359 14.8409 28.324 13.7384 28.2734C12.6387 28.2234 11.887 28.0484 11.2296 27.7931C10.5398 27.5337 9.91547 27.1266 9.39867 26.6006C8.87273 26.0845 8.46633 25.4595 8.20687 24.7697C7.95164 24.1123 7.77656 23.3606 7.72664 22.2609C7.67602 21.1591 7.66406 20.8069 7.66406 18C7.66406 15.1931 7.67602 14.8409 7.72664 13.7384C7.77656 12.638 7.95094 11.887 8.20687 11.2296C8.46633 10.5398 8.87344 9.91477 9.39937 9.39867C9.91547 8.87273 10.5405 8.46562 11.2303 8.20617C11.8877 7.95094 12.6394 7.77586 13.7391 7.72594C14.8416 7.67531 15.1931 7.66336 18 7.66336C20.8069 7.66336 21.1591 7.67531 22.2616 7.72594C23.362 7.77586 24.113 7.95094 24.7704 8.20547C25.4602 8.46492 26.0852 8.87203 26.6013 9.39797C27.1273 9.91406 27.5344 10.5391 27.7931 11.2289C28.0491 11.8863 28.2234 12.6373 28.2741 13.7377C28.324 14.8395 28.3359 15.1917 28.3359 17.9993C28.3359 20.8069 28.324 21.1591 28.2734 22.2609Z" fill="#979797"/>
</svg>
