<svg width="25" height="26" viewBox="0 0 25 26" fill="none" xmlns="http://www.w3.org/2000/svg">
<g clip-path="url(#clip0)">
<path d="M9.83046 24.2745C9.58163 24.2745 9.3455 24.1653 9.18402 23.9759L2.05433 15.601C1.41347 14.8591 0.933585 14.0674 0.631437 13.2519C-0.505047 10.2847 -0.0906725 6.91438 1.74405 4.24633C3.60062 1.54781 6.54745 0 9.82995 0C13.0576 0 15.9755 1.50668 17.8361 4.13309C19.6795 6.73512 20.1583 10.0547 19.1178 13.0127L17.5167 12.4495C18.3749 10.01 17.9763 7.26832 16.4508 5.11418C14.9126 2.94277 12.4995 1.69762 9.82995 1.69762C7.11468 1.69762 4.67769 2.9773 3.14308 5.20863C1.62472 7.41609 1.27991 10.1994 2.22038 12.6542C2.45499 13.2874 2.83179 13.9044 3.34316 14.497L9.82995 22.1168L10.7963 20.9808L12.0892 22.0812L10.4764 23.9769C10.3154 24.1648 10.0788 24.2745 9.83046 24.2745Z" fill="black"/>
<path d="M9.82979 14.5418C7.20897 14.5418 5.07666 12.4095 5.07666 9.78865C5.07666 7.16783 7.20897 5.03552 9.82979 5.03552C12.4506 5.03552 14.5829 7.16783 14.5829 9.78865C14.5829 12.4095 12.4506 14.5418 9.82979 14.5418ZM9.82979 6.73365C8.14486 6.73365 6.77428 8.10423 6.77428 9.78916C6.77428 11.4741 8.14486 12.8447 9.82979 12.8447C11.5147 12.8447 12.8853 11.4741 12.8853 9.78916C12.8853 8.10423 11.5147 6.73365 9.82979 6.73365Z" fill="black"/>
<path d="M17.1291 26C13.2133 26 10.0278 22.8145 10.0278 18.8987C10.0278 14.983 13.2133 11.7975 17.1291 11.7975C21.0448 11.7975 24.2303 14.983 24.2303 18.8987C24.2303 22.8145 21.0448 26 17.1291 26ZM17.1291 13.4951C14.1497 13.4951 11.7254 15.9189 11.7254 18.8987C11.7254 21.8786 14.1492 24.3029 17.1291 24.3029C20.1089 24.3029 22.5332 21.8791 22.5332 18.8987C22.5332 15.9194 20.1089 13.4951 17.1291 13.4951Z" fill="black"/>
<path d="M17.1291 23.1141C16.6604 23.1141 16.2805 22.7343 16.2805 22.2656V16.0982C16.2805 15.6295 16.6604 15.2496 17.1291 15.2496C17.5978 15.2496 17.9776 15.6295 17.9776 16.0982V22.2656C17.9776 22.7343 17.5983 23.1141 17.1291 23.1141Z" fill="black"/>
<path d="M19.9301 19.6625C19.7127 19.6625 19.4959 19.5797 19.3298 19.4137L17.129 17.2133L14.9286 19.4137C14.5975 19.7453 14.0603 19.7453 13.7287 19.4137C13.3971 19.0826 13.3971 18.5453 13.7287 18.2137L16.5293 15.4126C16.8477 15.0942 17.4113 15.0942 17.7292 15.4126L20.5303 18.2137C20.8619 18.5448 20.8619 19.0826 20.5303 19.4137C20.3643 19.5797 20.1469 19.6625 19.9301 19.6625Z" fill="black"/>
</g>
<defs>
<clipPath id="clip0">
<rect width="24.2303" height="26" fill="white"/>
</clipPath>
</defs>
</svg>
