<svg width="32" height="31" viewBox="0 0 32 31" fill="none" xmlns="http://www.w3.org/2000/svg">
<path d="M15.6088 7.72534C14.8367 7.72534 14.0819 7.95261 13.4399 8.3784C12.7979 8.80419 12.2975 9.40938 12.002 10.1174C11.7065 10.8255 11.6292 11.6046 11.7798 12.3563C11.9305 13.108 12.3023 13.7984 12.8483 14.3404C13.3943 14.8823 14.0899 15.2514 14.8472 15.4009C15.6045 15.5504 16.3895 15.4737 17.1028 15.1804C17.8162 14.8871 18.4259 14.3904 18.8549 13.7532C19.2839 13.1159 19.5128 12.3667 19.5128 11.6003C19.5116 10.573 19.0999 9.58804 18.3681 8.86159C17.6362 8.13514 16.6439 7.72651 15.6088 7.72534ZM15.6088 13.5378C15.2228 13.5378 14.8454 13.4242 14.5244 13.2113C14.2034 12.9984 13.9532 12.6958 13.8054 12.3418C13.6577 11.9878 13.619 11.5982 13.6943 11.2224C13.7697 10.8465 13.9556 10.5013 14.2286 10.2303C14.5015 9.95936 14.8494 9.77483 15.228 9.70007C15.6067 9.62531 15.9991 9.66368 16.3558 9.81032C16.7125 9.95697 17.0174 10.2053 17.2319 10.5239C17.4463 10.8425 17.5608 11.2171 17.5608 11.6003C17.5602 12.114 17.3544 12.6065 16.9884 12.9697C16.6225 13.3329 16.1263 13.5372 15.6088 13.5378Z" fill="black"/>
<path d="M23.1111 4.14818C21.2563 2.30758 18.7803 1.21419 16.161 1.07903C13.5417 0.943874 10.9649 1.77653 8.92775 3.4163C6.89063 5.05607 5.53765 7.38671 5.12996 9.9584C4.72227 12.5301 5.28876 15.1605 6.72009 17.342L14.0954 28.5803C14.2595 28.8304 14.4839 29.0358 14.7483 29.1781C15.0126 29.3203 15.3086 29.3948 15.6093 29.3948C15.9099 29.3948 16.2059 29.3203 16.4702 29.1781C16.7346 29.0358 16.959 28.8304 17.1231 28.5803L24.4987 17.342C25.8268 15.3184 26.4137 12.9031 26.1611 10.501C25.9085 8.09886 24.8317 5.85595 23.1111 4.14818ZM22.8631 16.2844L15.6093 27.3373L8.35538 16.2844C6.13498 12.9011 6.61121 8.37344 9.48772 5.51817C10.2916 4.72023 11.246 4.08727 12.2963 3.65542C13.3467 3.22358 14.4724 3.00131 15.6093 3.00131C16.7462 3.00131 17.8719 3.22358 18.9223 3.65542C19.9726 4.08727 20.927 4.72023 21.7309 5.51817C24.6074 8.37344 25.0835 12.9011 22.8631 16.2844Z" fill="black"/>
</svg>
