<svg width="21" height="16" viewBox="0 0 21 16" fill="none" xmlns="http://www.w3.org/2000/svg">
<path d="M14.4858 16H18.4858C19.0163 16 19.525 15.7893 19.9001 15.4142C20.2751 15.0391 20.4858 14.5304 20.4858 14V2C20.4858 1.46957 20.2751 0.960859 19.9001 0.585786C19.525 0.210714 19.0163 0 18.4858 0H14.4858V2H18.4858V14H14.4858V16Z" fill="black"/>
<path d="M8.15794 14.385L6.73794 12.977L10.6579 9.02398H1.51294C1.24772 9.02398 0.993369 8.91863 0.805833 8.73109C0.618296 8.54355 0.512939 8.2892 0.512939 8.02398C0.512939 7.75877 0.618296 7.50441 0.805833 7.31688C0.993369 7.12934 1.24772 7.02398 1.51294 7.02398H10.6759L6.69594 3.07698L8.10394 1.65698L14.4949 7.99398L8.15794 14.385Z" fill="black"/>
</svg>
