<svg width="22" height="16" viewBox="0 0 22 16" fill="none" xmlns="http://www.w3.org/2000/svg">
<path d="M14.8599 16H19.1932C19.7678 16 20.3189 15.7893 20.7253 15.4142C21.1316 15.0391 21.3599 14.5304 21.3599 14V2C21.3599 1.46957 21.1316 0.960859 20.7253 0.585786C20.3189 0.210714 19.7678 0 19.1932 0H14.8599V2H19.1932V14H14.8599V16Z" fill="black"/>
<path d="M7.58755 1.65701L9.12588 3.06501L4.87921 7.01801L14.7863 7.01801C15.0736 7.01801 15.3492 7.12337 15.5523 7.3109C15.7555 7.49844 15.8696 7.75279 15.8696 8.01801C15.8696 8.28323 15.7555 8.53758 15.5523 8.72512C15.3492 8.91265 15.0736 9.01801 14.7863 9.01801L4.85971 9.01801L9.17138 12.965L7.64605 14.385L0.722462 8.04801L7.58755 1.65701Z" fill="black"/>
</svg>
