<svg width="14" height="14" viewBox="0 0 14 14" fill="none" xmlns="http://www.w3.org/2000/svg">
<path d="M9.91667 0C8.87075 0 7.92283 0.196 7.182 0.56525C6.44175 0.9345 5.83333 1.53592 5.83333 2.33333V4.66667C5.83333 4.74192 5.85842 4.81483 5.87008 4.88542C5.28618 4.73704 4.68578 4.66354 4.08333 4.66667C3.03742 4.66667 2.0895 4.86267 1.34867 5.23192C0.608416 5.60117 0 6.20258 0 7V11.6667C0 12.4641 0.608417 13.0655 1.34925 13.4347C2.0895 13.804 3.03742 14 4.08333 14C5.12925 14 6.07717 13.804 6.818 13.4347C7.55767 13.0655 8.16667 12.4641 8.16667 11.6667V11.4298C8.73731 11.5841 9.32555 11.6637 9.91667 11.6667C10.9626 11.6667 11.9105 11.4707 12.6513 11.1014C13.391 10.7322 14 10.1307 14 9.33333V2.33333C14 1.53592 13.3916 0.9345 12.6508 0.56525C11.9111 0.196 10.9632 0 9.91667 0ZM9.91667 1.16667C10.8051 1.16667 11.5961 1.358 12.1222 1.62225C12.649 1.8865 12.8333 2.16475 12.8333 2.33333C12.8333 2.5025 12.649 2.78017 12.1222 3.04442C11.5967 3.30867 10.8051 3.5 9.91667 3.5C9.02825 3.5 8.23725 3.30867 7.71108 3.04442C7.18433 2.78017 7 2.50192 7 2.33333C7 2.16417 7.18433 1.8865 7.71108 1.62225C8.23667 1.358 9.02825 1.16667 9.91667 1.16667ZM7 3.99233C7.06125 4.02617 7.11842 4.06992 7.18258 4.10142C7.92283 4.47067 8.87075 4.66667 9.91667 4.66667C10.9626 4.66667 11.9105 4.47067 12.6513 4.10142C12.7149 4.06992 12.7721 4.02617 12.8333 3.99233V4.66667C12.8333 4.83583 12.649 5.1135 12.1222 5.37775C11.5961 5.642 10.8051 5.83333 9.91667 5.83333C9.02825 5.83333 8.23725 5.642 7.71108 5.37775C7.18433 5.1135 7 4.83525 7 4.66667V3.99233ZM4.08333 5.83333C4.97175 5.83333 5.76275 6.02467 6.28892 6.28892C6.81567 6.55317 7 6.83142 7 7C7 7.16917 6.81567 7.44683 6.28892 7.71108C5.76275 7.97533 4.97175 8.16667 4.08333 8.16667C3.19492 8.16667 2.40392 7.97533 1.87775 7.71108C1.351 7.44683 1.16667 7.16858 1.16667 7C1.16667 6.83083 1.351 6.55317 1.87775 6.28892C2.40333 6.02467 3.19492 5.83333 4.08333 5.83333ZM12.8333 6.32567V7C12.8333 7.16917 12.649 7.44683 12.1222 7.71108C11.5961 7.97533 10.8051 8.16667 9.91667 8.16667C9.32244 8.16989 8.73156 8.07751 8.16667 7.89308V7C8.16667 6.92475 8.14158 6.85183 8.12992 6.78125C8.67242 6.92242 9.27383 7 9.91667 7C10.9626 7 11.9105 6.804 12.6513 6.43475C12.7149 6.40325 12.7721 6.3595 12.8333 6.32567ZM1.16667 8.659C1.22792 8.69283 1.28508 8.73658 1.34925 8.76808C2.0895 9.13733 3.03742 9.33333 4.08333 9.33333C5.12925 9.33333 6.07717 9.13733 6.818 8.76808C6.88158 8.73658 6.93875 8.69283 7 8.659V9.33333C7 9.5025 6.81567 9.78017 6.28892 10.0444C5.76275 10.3087 4.97175 10.5 4.08333 10.5C3.19492 10.5 2.40392 10.3087 1.87775 10.0444C1.351 9.78017 1.16667 9.50192 1.16667 9.33333V8.659ZM12.8333 8.659V9.33333C12.8333 9.5025 12.649 9.78017 12.1222 10.0444C11.5961 10.3087 10.8051 10.5 9.91667 10.5C9.25342 10.5 8.65433 10.4067 8.16667 10.2445V9.11458C8.70217 9.25575 9.2855 9.33333 9.91667 9.33333C10.9626 9.33333 11.9105 9.13733 12.6513 8.76808C12.7149 8.73658 12.7721 8.69283 12.8333 8.659ZM1.16667 10.9923C1.22792 11.0262 1.28508 11.0699 1.34925 11.1014C2.0895 11.4707 3.03742 11.6667 4.08333 11.6667C5.12925 11.6667 6.07717 11.4707 6.818 11.1014C6.88158 11.0699 6.93875 11.0262 7 10.9923V11.6667C7 11.8358 6.81567 12.1135 6.28892 12.3777C5.76275 12.642 4.97175 12.8333 4.08333 12.8333C3.19492 12.8333 2.40392 12.642 1.87775 12.3777C1.351 12.1135 1.16667 11.8352 1.16667 11.6667V10.9923Z" fill="black"/>
</svg>
