<svg width="26" height="26" viewBox="0 0 26 26" fill="none" xmlns="http://www.w3.org/2000/svg">
<path d="M4.39697 23.9286H21.2204V25.8407H4.39697V23.9286Z" fill="#1A1413"/>
<path d="M15.8356 10.4513H9.94139C9.41349 10.4513 8.98535 10.0231 8.98535 9.49522C8.98535 8.96732 9.41349 8.53918 9.94139 8.53918H15.8363C16.3642 8.53918 16.7923 8.96732 16.7923 9.49522C16.7923 10.0231 16.3635 10.4513 15.8356 10.4513Z" fill="#1A1413"/>
<path d="M20.2963 14.9121H9.94139C9.41349 14.9121 8.98535 14.4839 8.98535 13.956C8.98535 13.4281 9.41349 13 9.94139 13H20.297C20.8249 13 21.2531 13.4281 21.2531 13.956C21.2524 14.4839 20.8242 14.9121 20.2963 14.9121Z" fill="#1A1413"/>
<path d="M6.11793 18.0026H17.8432C18.3711 18.0026 18.7993 18.4307 18.7993 18.9586V21.2843C18.7993 22.7426 19.986 23.9286 21.4436 23.9286C22.9019 23.9286 24.0879 22.7419 24.0879 21.2843V3.10992L22.3636 4.63542C22.0006 4.95617 21.4547 4.95479 21.093 4.63195L18.4168 2.2384L15.7399 4.63195C15.3769 4.95687 14.8282 4.95687 14.4652 4.63195L11.789 2.23909L9.11282 4.63265C8.75188 4.95548 8.20597 4.95756 7.84226 4.63611L6.11724 3.10992V18.0026H6.11793ZM21.4436 25.8407C18.9309 25.8407 16.8872 23.797 16.8872 21.2843V19.914H1.91207V21.2843C1.91207 22.7426 3.09811 23.9286 4.55641 23.9286V25.8407C2.0437 25.8407 0 23.797 0 21.2843V18.9586C0 18.4307 0.428138 18.0026 0.956035 18.0026H4.20586V0.987935C4.20586 0.611755 4.42617 0.270908 4.76909 0.116418C5.11202 -0.0373788 5.51383 0.0235858 5.7951 0.271601L8.472 2.63952L11.1517 0.243197C11.5147 -0.0817167 12.0627 -0.0817167 12.4257 0.243197L15.1026 2.63675L17.7788 0.243197C18.1418 -0.0817167 18.6905 -0.0817167 19.0535 0.243197L21.7332 2.63952L24.4101 0.271601C24.692 0.022893 25.0932 -0.0380716 25.4361 0.116418C25.779 0.270908 25.9993 0.611755 25.9993 0.987935V21.2843C26 23.797 23.9556 25.8407 21.4436 25.8407Z" fill="#1A1413"/>
</svg>
