<svg width="25" height="25" viewBox="0 0 25 25" fill="none" xmlns="http://www.w3.org/2000/svg">
<path d="M24.9249 23.1634L16.8093 15.3322C18.0687 13.7611 18.7499 11.8403 18.7499 9.81989C18.7499 7.40147 17.7718 5.13383 16.0031 3.42405C14.2343 1.71427 11.8781 0.773438 9.37496 0.773438C6.87185 0.773438 4.5156 1.71728 2.74686 3.42405C0.974996 5.13081 0 7.40147 0 9.81989C0 12.2353 0.978121 14.509 2.74686 16.2157C4.5156 17.9255 6.86872 18.8664 9.37496 18.8664C11.4687 18.8664 13.4562 18.209 15.0843 16.9967L23.1999 24.8249C23.2237 24.8479 23.252 24.8662 23.2831 24.8786C23.3141 24.891 23.3475 24.8974 23.3811 24.8974C23.4148 24.8974 23.4481 24.891 23.4792 24.8786C23.5103 24.8662 23.5386 24.8479 23.5624 24.8249L24.9249 23.5132C24.9487 23.4903 24.9676 23.463 24.9805 23.433C24.9934 23.403 25 23.3708 25 23.3383C25 23.3058 24.9934 23.2737 24.9805 23.2437C24.9676 23.2136 24.9487 23.1864 24.9249 23.1634ZM14.3249 14.5964C12.9999 15.872 11.2437 16.5746 9.37496 16.5746C7.50622 16.5746 5.74997 15.872 4.42498 14.5964C3.10311 13.3179 2.37499 11.6232 2.37499 9.81989C2.37499 8.01663 3.10311 6.31892 4.42498 5.04337C5.74997 3.76781 7.50622 3.06521 9.37496 3.06521C11.2437 3.06521 13.0031 3.7648 14.3249 5.04337C15.6468 6.32193 16.3749 8.01663 16.3749 9.81989C16.3749 11.6232 15.6468 13.3209 14.3249 14.5964Z" fill="black"/>
</svg>
