<svg width="23" height="25" viewBox="0 0 23 25" fill="none" xmlns="http://www.w3.org/2000/svg">
<g clip-path="url(#clip0)">
<path d="M22.099 24.6814H0.900968C0.403483 24.6814 0 24.2779 0 23.7805C0 17.41 4.084 13.9021 11.5 13.9021C18.916 13.9021 23 17.4105 23 23.7805C23 24.2779 22.5965 24.6814 22.099 24.6814ZM1.83423 22.88H21.1658C20.811 18.1167 17.5638 15.7036 11.5 15.7036C5.43618 15.7036 2.18855 18.1167 1.83423 22.88Z" fill="black"/>
<path d="M11.5 12.5808C8.20515 12.5808 5.5249 9.67155 5.5249 6.09515C5.5249 2.62047 8.09331 0 11.5 0C14.9067 0 17.4751 2.62047 17.4751 6.09515C17.4751 9.67155 14.7949 12.5808 11.5 12.5808ZM11.5 1.80145C9.08153 1.80145 7.32635 3.60725 7.32635 6.09515C7.32635 8.67803 9.19867 10.7793 11.5 10.7793C13.8014 10.7793 15.6737 8.67803 15.6737 6.09515C15.6737 3.64726 13.8795 1.80145 11.5 1.80145Z" fill="black"/>
</g>
<defs>
<clipPath id="clip0">
<rect width="23" height="24.6814" fill="white"/>
</clipPath>
</defs>
</svg>
