<?xml version="1.0" encoding="UTF-8"?>
<!DOCTYPE svg PUBLIC "-//W3C//DTD SVG 1.1//EN" "http://www.w3.org/Graphics/SVG/1.1/DTD/svg11.dtd">
<!-- Creator: CorelDRAW 2018 (64-Bit) -->
<svg xmlns="http://www.w3.org/2000/svg" xml:space="preserve" width="27px" height="27px" version="1.1" style="shape-rendering:geometricPrecision; text-rendering:geometricPrecision; image-rendering:optimizeQuality; fill-rule:evenodd; clip-rule:evenodd"
viewBox="0 0 27 27"
 xmlns:xlink="http://www.w3.org/1999/xlink">
 <defs>
  <style type="text/css">
   <![CDATA[
    .fil0 {fill:#979797}
   ]]>
  </style>
 </defs>
 <g id="Слой_x0020_1">
  <metadata id="CorelCorpID_0Corel-Layer"/>
  <path class="fil0" d="M27 13.5c0,7.457 -6.043,13.5 -13.5,13.5 -7.457,0 -13.5,-6.046 -13.5,-13.5 0,-7.457 6.043,-13.5 13.5,-13.5 7.457,0 13.5,6.043 13.5,13.5zm-14.012 5.92l1.059 0c0,0 0.319,-0.036 0.485,-0.211 0.15,-0.162 0.144,-0.466 0.144,-0.466 0,0 -0.021,-1.423 0.638,-1.63 0.649,-0.208 1.486,1.375 2.37,1.982 0.671,0.46 1.179,0.361 1.179,0.361l2.368 -0.033c0,0 1.239,-0.075 0.649,-1.05 -0.048,-0.081 -0.343,-0.719 -1.76,-2.036 -1.482,-1.378 -1.284,-1.155 0.503,-3.538 1.089,-1.45 1.525,-2.337 1.39,-2.716 -0.13,-0.361 -0.93,-0.265 -0.93,-0.265l-2.665 0.018c0,0 -0.198,-0.027 -0.343,0.061 -0.144,0.087 -0.235,0.285 -0.235,0.285 0,0 -0.421,1.125 -0.983,2.079 -1.186,2.015 -1.661,2.121 -1.856,1.997 -0.452,-0.292 -0.337,-1.173 -0.337,-1.799 0,-1.952 0.295,-2.767 -0.578,-2.978 -0.289,-0.069 -0.502,-0.117 -1.242,-0.123 -0.951,-0.009 -1.757,0.003 -2.214,0.226 -0.304,0.147 -0.538,0.478 -0.394,0.499 0.177,0.024 0.578,0.108 0.788,0.397 0.274,0.37 0.265,1.206 0.265,1.206 0,0 0.156,2.298 -0.367,2.584 -0.361,0.196 -0.851,-0.204 -1.91,-2.033 -0.542,-0.936 -0.951,-1.971 -0.951,-1.971 0,0 -0.078,-0.192 -0.219,-0.297 -0.172,-0.127 -0.41,-0.166 -0.41,-0.166l-2.532 0.015c0,0 -0.382,0.012 -0.521,0.178 -0.123,0.147 -0.009,0.451 -0.009,0.451 0,0 1.976,4.632 4.223,6.97 2.058,2.144 4.395,2.003 4.395,2.003z"/>
 </g>
</svg>
