<?xml version="1.0" encoding="UTF-8"?>
<!DOCTYPE svg PUBLIC "-//W3C//DTD SVG 1.1//EN" "http://www.w3.org/Graphics/SVG/1.1/DTD/svg11.dtd">
<!-- Creator: CorelDRAW -->
<svg xmlns="http://www.w3.org/2000/svg" xml:space="preserve" width="70mm" height="94.892mm" style="shape-rendering:geometricPrecision; text-rendering:geometricPrecision; image-rendering:optimizeQuality; fill-rule:evenodd; clip-rule:evenodd"
viewBox="0 0 70 94.892"
 xmlns:xlink="http://www.w3.org/1999/xlink">
 <defs>
  <style type="text/css">
   <![CDATA[
    .fil0 {fill:#E74C3C;fill-rule:nonzero}
   ]]>
  </style>
 </defs>
 <g id="Слой_x0020_1">
  <metadata id="CorelCorpID_0Corel-Layer"/>
  <g id="_95003528">
   <path id="_95003552" class="fil0" d="M69.6483 52.9488l-7.9835 -11.5522c-0.3797,-0.5492 -1.0119,-0.8772 -1.6883,-0.8772 -0.6782,0 -1.3095,0.328 -1.6892,0.8772l-7.9826 11.5522c-0.4248,0.6151 -0.4681,1.4082 -0.1155,2.065 0.3536,0.6542 1.048,1.0655 1.8047,1.0655l3.9385 0c-1.7,6.8772 -8.7437,12.3886 -16.1717,14.1187l0 -44.2763 6.3466 0c1.7524,0 3.1728,-1.3961 3.1728,-3.1158 0,-1.7223 -1.4204,-3.1158 -3.1728,-3.1158l-3.2702 0c2.2862,-2.0798 3.7428,-5.0238 3.7428,-8.3192 0,-6.268 -5.1958,-11.3708 -11.5802,-11.3708 -6.3854,0 -11.5793,5.1028 -11.5793,11.3708 0,3.2954 1.4547,6.2394 3.7419,8.3192l-3.2675 0c-1.7524,0 -3.1738,1.3935 -3.1738,3.1158 0,1.7197 1.4214,3.1158 3.1738,3.1158l6.3465 0 0 44.2763c-7.4297,-1.7301 -14.4752,-7.2389 -16.1753,-14.1187l3.9403 0c0.7567,0 1.4503,-0.4113 1.8038,-1.0655 0.3536,-0.6568 0.3094,-1.4499 -0.1145,-2.065l-7.9826 -11.5522c-0.3797,-0.5492 -1.0128,-0.8772 -1.6892,-0.8772 -0.6774,0 -1.3096,0.328 -1.6893,0.8772l-7.9826 11.5522c-0.4248,0.6151 -0.468,1.4082 -0.1145,2.065 0.3526,0.6542 1.0471,1.0655 1.8038,1.0655l4.2947 0c1.5973,10.6949 10.9913,21.6076 21.5695,25.2145l-0.7918 0.9535c-0.5637,0.6777 -0.6124,1.6399 -0.1209,2.3705l6.3042 9.3743c0.3779,0.5614 1.0182,0.8998 1.7037,0.8998 0.6854,0 1.3258,-0.3384 1.7027,-0.8998l6.3024 -9.3743c0.4933,-0.7306 0.4437,-1.6928 -0.1208,-2.3678l-0.791 -0.9562c10.5782,-3.6069 19.9723,-14.5196 21.5704,-25.2145l4.2948 0c0.7567,0 1.4502,-0.4113 1.8038,-1.0655 0.3535,-0.6568 0.3093,-1.4499 -0.1146,-2.065zm-34.6486 -46.7145l0 0c2.886,0 5.2327,2.3037 5.2327,5.1366 0,2.8373 -2.3467,5.1392 -5.2327,5.1392 -2.8852,0 -5.2328,-2.3019 -5.2328,-5.1392 0,-2.8329 2.3476,-5.1366 5.2328,-5.1366z"/>
  </g>
 </g>
</svg>
